# xmcd
#
# Track frame offsets: 
#        150
#        5052
#        30271
#        31136
#        31841
#        33613
#        36646
#        39100
#        40013
#        45190
#        53814
#        63256
#        75005
#        85277
#        88173
#        101536
#        119958
#        137111
#        160163
#        173899
#        195700
#        216454
#        234792
#        247368
#        254811
#        255321
#        258390
#        263248
#        265051
#        272862
#        277727
#        278233
#        291901
#        292723
#        323388
#        342489
#
# Disc length: 4691 seconds
#
# Revision: 0
# Processed by: cddbd v1.5.2PL0 Copyright (c) Steve Scherf et al.
# Submitted via: ExactAudioCopy v0.95b3
#
DISCID=01125124
DTITLE=The Beatles  - AB  Road - Complete Purple Chick Set v1.1 Jan.22
DTITLE=Various Artist - D2  FLAC
DYEAR=1900
DGENRE=
TTITLE0=Dialogue
TTITLE1=Dig A Pony 22.23
TTITLE2=Dig A Pony 22.23P
TTITLE3=Dialogue
TTITLE4=Dialogue
TTITLE5=Going Up The Country 22.20P
TTITLE6=Going Up The Country 22.20P
TTITLE7=Dig A Pony 22.21P
TTITLE8=Dig A Pony 22.23P
TTITLE9=Dig A Pony 22.23P
TTITLE10=Dig A Pony 22.24
TTITLE11=Dig A Pony 22.25
TTITLE12=Dig A Pony 22.26
TTITLE13=Dig A Pony 22.27
TTITLE14=Dig A Pony 22.28
TTITLE15=Dig A Pony 22.29
TTITLE16=I've Got A Feeling 22.30
TTITLE17=I've Got A Feeling 22.31
TTITLE18=Riffs
TTITLE19=I've Got A Feeling 22.32
TTITLE20=I've Got A Feeling 22.33
TTITLE21=I've Got A Feeling 22.34
TTITLE22=I've Got A Feeling 22.35
TTITLE23=I've Got A Feeling 22.36
TTITLE24=Second large one
TTITLE25=Dialogue
TTITLE26=The Long And Winding Road 22.37
TTITLE27=The Long And Winding Road 22.38
TTITLE28=The Long And Winding Road 22.39
TTITLE29=Improvisation 22.40
TTITLE30=Noise
TTITLE31=I've Got A Feeling 22.41
TTITLE32=Dig A Pony 22.42
TTITLE33=Dig A Pony 22.43
TTITLE34=Don't Let Me Down 22.44
TTITLE35=Don't Let Me Down 22.45
EXTD=
EXTT0=
EXTT1=
EXTT2=
EXTT3=
EXTT4=
EXTT5=
EXTT6=
EXTT7=
EXTT8=
EXTT9=
EXTT10=
EXTT11=
EXTT12=
EXTT13=
EXTT14=
EXTT15=
EXTT16=
EXTT17=
EXTT18=
EXTT19=
EXTT20=
EXTT21=
EXTT22=
EXTT23=
EXTT24=
EXTT25=
EXTT26=
EXTT27=
EXTT28=
EXTT29=
EXTT30=
EXTT31=
EXTT32=
EXTT33=
EXTT34=
EXTT35=
PLAYORDER=
